<svg width="256" height="256" viewBox="0 0 256 256" fill="none" xmlns="http://www.w3.org/2000/svg">
  <rect width="256" height="256" rx="72" fill="#FCFAF7"/>
  <rect x="12" y="12" width="232" height="232" rx="60" stroke="#0F172A" stroke-opacity="0.05" stroke-width="2"/>
  <path d="M64 78C64 69.1634 71.1634 62 80 62H176C184.837 62 192 69.1634 192 78V84C192 92.8366 184.837 100 176 100H80C71.1634 100 64 92.8366 64 84V78Z" fill="#1F7A6F"/>
  <path d="M86 122C86 114.82 91.8203 109 99 109H157C164.18 109 170 114.82 170 122V127C170 134.18 164.18 140 157 140H99C91.8203 140 86 134.18 86 127V122Z" fill="#203139"/>
  <path d="M106 163C106 156.925 110.925 152 117 152H139C145.075 152 150 156.925 150 163V167C150 173.075 145.075 178 139 178H117C110.925 178 106 173.075 106 167V163Z" fill="#B4842F"/>
  <circle cx="184" cy="78" r="17" fill="#C96E52"/>
</svg>
